<?xml version="1.0" encoding="iso-8859-1"?>
<!-- Generator: Adobe Illustrator 19.0.0, SVG Export Plug-In . SVG Version: 6.00 Build 0)  -->
<svg version="1.1" id="Layer_1" xmlns="http://www.w3.org/2000/svg" xmlns:xlink="http://www.w3.org/1999/xlink" x="0px" y="0px"
	 viewBox="0 0 512.013 512.013" style="enable-background:new 0 0 512.013 512.013;" xml:space="preserve">
<g>
	<g>
		<g>
			<path d="M316.419,361.506c-6.536-9.803-19.781-12.452-29.584-5.917l-30.833,20.555v-24.138c0-11.782-9.551-21.333-21.333-21.333
				c-11.782,0-21.333,9.551-21.333,21.333v24.138l-30.833-20.555c-9.803-6.536-23.048-3.886-29.584,5.917
				c-6.536,9.803-3.886,23.049,5.917,29.584l37.374,24.916l-37.374,24.916c-9.803,6.536-12.452,19.781-5.917,29.584
				c6.536,9.803,19.781,12.452,29.584,5.917l30.833-20.555v24.138c0,11.782,9.551,21.333,21.333,21.333
				c11.782,0,21.333-9.551,21.333-21.333v-24.138l30.833,20.555c9.803,6.536,23.048,3.886,29.584-5.917
				c6.536-9.803,3.886-23.049-5.917-29.584l-37.374-24.916l37.374-24.916C320.306,384.555,322.955,371.309,316.419,361.506z"/>
			<path d="M508.419,361.506c-6.536-9.803-19.781-12.452-29.584-5.917l-30.833,20.555v-24.138c0-11.782-9.551-21.333-21.333-21.333
				s-21.333,9.551-21.333,21.333v24.138l-30.833-20.555c-9.803-6.536-23.049-3.886-29.584,5.917
				c-6.536,9.803-3.886,23.049,5.917,29.584l37.374,24.916l-37.374,24.916c-9.803,6.536-12.452,19.781-5.917,29.584
				c6.536,9.803,19.781,12.452,29.584,5.917l30.833-20.555v24.138c0,11.782,9.551,21.333,21.333,21.333s21.333-9.551,21.333-21.333
				v-24.138l30.833,20.555c9.803,6.536,23.049,3.886,29.584-5.917c6.535-9.803,3.886-23.049-5.917-29.584l-37.374-24.916
				l37.374-24.916C512.306,384.555,514.955,371.309,508.419,361.506z"/>
			<path d="M286.246,167.956c0.027-0.163,0.054-0.326,0.081-0.489c1.517-8.72,4.606-17.008,9.108-24.515l1.683-2.806
				c11.603-17.454,30.58-28.765,51.832-28.765c30.637,0,56.569,23.484,62.447,55.036c-32.209,10.12-55.437,41.31-55.437,77.858
				c0,11.782,9.551,21.333,21.333,21.333c11.782,0,21.333-9.551,21.333-21.333c0-21.607,16.111-38.656,35.349-38.656
				c19.258,0,35.371,17.047,35.371,38.656c0,11.782,9.551,21.333,21.333,21.333c11.782,0,21.333-9.551,21.333-21.333
				c0-37.344-24.25-69.087-57.558-78.484c-6.661-54.556-51.131-97.076-105.505-97.076c-27.306,0-52.111,10.729-70.887,28.316
				c-22.315-24.782-52.761-40.498-86.06-43.238V32.006c0-11.782-9.551-21.333-21.333-21.333c-11.782,0-21.333,9.551-21.333,21.333
				v25.458c-15.786,4.11-30.438,11.172-43.409,20.588L76.69,57.282c-9.605-6.824-22.923-4.569-29.747,5.036
				c-6.824,9.605-4.569,22.923,5.036,29.747l23.444,16.655c-10.843,15.027-18.844,32.419-23.19,51.287H21.335
				c-11.782,0-21.333,9.551-21.333,21.333c0,11.782,9.551,21.333,21.333,21.333H48.85c1.699,25.422,9.953,49.407,23.495,69.741
				c-23.231,8.219-43.744,24.785-57.128,48.111c-30.003,52.19-14.329,120.134,35.464,152.164c9.909,6.374,23.109,3.509,29.483-6.4
				c6.374-9.909,3.509-23.109-6.4-29.483C43.286,417.2,33.426,374.46,52.217,341.775c13.608-23.716,38.685-35.658,63.172-31.887
				c4.664,11.674,12.001,22.387,21.95,31.054c8.884,7.739,22.359,6.811,30.099-2.073c7.739-8.884,6.811-22.359-2.073-30.099
				c-5.817-5.068-9.78-11.722-11.792-18.939c-0.154-1.389-0.443-2.753-0.86-4.073c-1.6-9.203-0.15-18.61,4.122-26.625
				c0.015-0.029,0.031-0.058,0.046-0.087c0.327-0.611,0.672-1.213,1.032-1.806c0.021-0.034,0.041-0.07,0.062-0.104
				c0.761-1.247,1.594-2.455,2.497-3.617c1.016-1.306,2.106-2.508,3.243-3.633c0.15-0.148,0.291-0.309,0.442-0.454
				c0.314-0.3,0.644-0.572,0.966-0.859c0.354-0.314,0.7-0.642,1.063-0.94c0.239-0.197,0.49-0.371,0.734-0.56
				c0.46-0.358,0.917-0.721,1.389-1.053c0.21-0.147,0.428-0.275,0.64-0.418c0.517-0.347,1.034-0.694,1.565-1.01
				c0.208-0.123,0.422-0.229,0.632-0.347c0.545-0.309,1.09-0.617,1.647-0.893c0.221-0.11,0.448-0.201,0.67-0.305
				c0.553-0.26,1.107-0.519,1.671-0.747c0.245-0.099,0.496-0.179,0.743-0.272c0.548-0.207,1.095-0.414,1.651-0.591
				c0.276-0.088,0.556-0.155,0.834-0.235c0.325-0.094,0.651-0.183,0.978-0.267c-0.204,6.885,0.42,13.9,1.977,20.909
				c2.556,11.502,13.952,18.753,25.453,16.197s18.753-13.952,16.198-25.453c-1.7-7.651-1.184-15.257,1.054-22.082l0.601-1.6
				c3.569-9.509,10.3-16.948,18.717-20.91c0.039-0.018,0.079-0.036,0.118-0.055c0.617-0.288,1.243-0.557,1.877-0.807
				c0.019-0.007,0.037-0.015,0.056-0.022c1.33-0.521,2.697-0.958,4.096-1.305c3.883-0.971,7.861-1.179,11.878-0.659l2.109,0.273
				c13.31,2.586,24.754,13.441,28.203,28.948c2.558,11.501,13.954,18.751,25.455,16.194c11.501-2.557,18.751-13.954,16.194-25.455
				C327.355,198.265,309.185,177.533,286.246,167.956z M252.48,133.098c-4.211,9.466-7.19,19.645-8.717,30.31
				c-0.589,0.109-1.178,0.234-1.767,0.358c-0.499,0.104-0.997,0.216-1.495,0.331c-0.44,0.101-0.879,0.182-1.318,0.292
				c-2.304,0.574-4.549,1.265-6.752,2.034c-0.127,0.044-0.256,0.083-0.383,0.128c-0.954,0.339-1.893,0.706-2.827,1.08
				c-0.227,0.091-0.458,0.176-0.685,0.269c-0.92,0.379-1.825,0.782-2.725,1.194c-0.22,0.101-0.443,0.197-0.661,0.3
				c-0.922,0.433-1.829,0.888-2.728,1.355c-0.178,0.092-0.357,0.182-0.533,0.276c-0.938,0.497-1.861,1.014-2.774,1.547
				c-0.121,0.071-0.242,0.14-0.362,0.211c-0.961,0.568-1.907,1.157-2.839,1.764c-0.057,0.037-0.113,0.074-0.17,0.111
				c-9.104,5.968-16.81,13.758-22.748,22.786c-18.538-1.385-37.038,4.178-52.042,15.762c-0.279,0.215-0.558,0.43-0.835,0.649
				c-0.375,0.298-0.748,0.6-1.118,0.905c-0.364,0.299-0.724,0.604-1.083,0.911c-0.312,0.267-0.626,0.533-0.935,0.805
				c-0.501,0.441-0.994,0.893-1.485,1.349c-0.183,0.17-0.369,0.335-0.55,0.506c-0.631,0.597-1.251,1.208-1.865,1.828
				c-0.246,0.248-0.486,0.503-0.729,0.756c-0.397,0.412-0.791,0.827-1.18,1.249c-0.273,0.296-0.544,0.594-0.813,0.895
				c-0.35,0.391-0.696,0.788-1.039,1.187c-0.278,0.323-0.556,0.644-0.83,0.972c-0.331,0.397-0.654,0.803-0.978,1.208
				c-0.237,0.296-0.482,0.583-0.716,0.883c-6.641,8.534-11.348,18.058-14.186,27.99c-13.618-17.137-21.435-39.036-21.435-62.434
				c0-53.758,40.731-96.853,90.368-96.853C209.59,96.013,235.506,109.929,252.48,133.098z"/>
		</g>
	</g>
</g>
<g>
</g>
<g>
</g>
<g>
</g>
<g>
</g>
<g>
</g>
<g>
</g>
<g>
</g>
<g>
</g>
<g>
</g>
<g>
</g>
<g>
</g>
<g>
</g>
<g>
</g>
<g>
</g>
<g>
</g>
</svg>
